<svg width="20" height="20" xmlns="http://www.w3.org/2000/svg"><g fill="#FFF" fill-rule="evenodd"><path d="M5 3.766V6H3.082A8.042 8.042 0 0 1 5 3.766zM5 12H2.263A8.005 8.005 0 0 1 2 10c0-.691.098-1.36.263-2H5v4zm0 4.235A8.056 8.056 0 0 1 3.082 14H5v2.235zM0 10c0 5.515 4.486 10 10 10v-2a7.945 7.945 0 0 1-3-.59V14h3v-2H7V8h3V6H7V2.59A7.945 7.945 0 0 1 10 2V0C4.486 0 0 4.488 0 10zm15-7a1.001 1.001 0 1 0 1 1c0-.55-.449-1-1-1m0 4c-1.654 0-3-1.345-3-3 0-1.653 1.346-3 3-3s3 1.347 3 3c0 1.655-1.346 3-3 3"/><path d="M14.733 18h.534c.948-3 .998-3 1.732-3 .058 0 .116.005.173.015.112.005.322.005.552.003l-.243-.972c-.454-1.816-.454-1.816-.722-2.832l-.252-.96A1.556 1.556 0 0 0 15 9.002c-.714 0-1.356.516-1.495 1.199l-.265 1.014c-.268 1.016-.268 1.016-.72 2.832l-.244.973c.231.002.441.002.553-.004.084-.014.175-.014.252-.014.658 0 .741.12 1.652 3M16 20h-2a1 1 0 0 1-.954-.7c-.258-.817-.544-1.71-.736-2.282A88.829 88.829 0 0 1 10.978 17a1 1 0 0 1-.949-1.243l1.53-6.011C11.873 8.18 13.326 7 15 7c1.672 0 3.125 1.179 3.454 2.8l1.516 5.957A1.002 1.002 0 0 1 19.021 17s-.744.016-1.33.018c-.193.573-.48 1.465-.738 2.283A1 1 0 0 1 16 20"/></g></svg>