<svg width="14" height="20" xmlns="http://www.w3.org/2000/svg"><g fill="#FFF" fill-rule="evenodd"><path d="M13.78.375A1 1 0 0 0 13 0H1a1.002 1.002 0 0 0-.976 1.217l2 9 1.952-.433L2.246 2H5.2L6 6h2l.8-4h2.953l-1.729 7.784 1.952.433 2-9a1 1 0 0 0-.196-.842"/><path d="M7 16a.99.99 0 0 1 .447.107l2.055 1.027-.472-1.89a1 1 0 0 1 .138-.799l.963-1.444H9c-.379 0-.725-.214-.895-.553L7 10.236l-1.105 2.211a1 1 0 0 1-.895.554H3.869l.963 1.444a1 1 0 0 1 .138.798l-.472 1.89 2.055-1.026A.99.99 0 0 1 7 16m4 4c-.152 0-.306-.035-.447-.105L7 18.12l-3.553 1.776A1 1 0 0 1 2.03 18.76l.892-3.572-1.754-2.631A1 1 0 0 1 2 11h2.382l1.723-3.447c.339-.678 1.451-.678 1.79 0L9.618 11H12a1.002 1.002 0 0 1 .832 1.555l-1.754 2.632.892 3.57A.998.998 0 0 1 11 20"/></g></svg>