<?xml version="1.0" encoding="UTF-8"?>
<svg width="66px" height="87px" viewBox="0 0 66 87" version="1.1" xmlns="http://www.w3.org/2000/svg" xmlns:xlink="http://www.w3.org/1999/xlink">
    <!-- Generator: Sketch 47.1 (45422) - http://www.bohemiancoding.com/sketch -->
    <title>icon</title>
    <desc>Created with Sketch.</desc>
    <defs></defs>
    <g id="web" stroke="none" stroke-width="1" fill="none" fill-rule="evenodd">
        <g id="home" transform="translate(-892.000000, -4061.000000)" fill="#FFFFFF">
            <g id="content" transform="translate(-7.000000, -60.000000)">
                <g id="our_team" transform="translate(0.000000, 3300.000000)">
                    <g id="man">
                        <g id="icon" transform="translate(856.000000, 789.000000)">
                            <g transform="translate(43.000000, 32.000000)" id="Group-14">
                                <g>
                                    <path d="M20.7103448,20.9868421 L45.2896552,20.9868421 L45.2896552,25.1842105 L20.7103448,25.1842105 L20.7103448,20.9868421 Z M33,41.9736842 C27.6580966,41.9736842 23.102731,38.4688816 21.4108552,33.5789474 L44.5891448,33.5789474 C42.897269,38.4688816 38.3419034,41.9736842 33,41.9736842 L33,41.9736842 Z M33,50.3684211 C44.2941931,50.3684211 53.4827586,40.9537237 53.4827586,29.3815789 L53.4827586,4.19736842 L45.2896552,4.19736842 L45.2896552,12.5921053 L37.0965517,12.5921053 L37.0965517,0 L28.9034483,0 L28.9034483,12.5921053 L20.7103448,12.5921053 L20.7103448,4.19736842 L12.5172414,4.19736842 L12.5172414,29.3815789 C12.5172414,40.9537237 21.7058069,50.3684211 33,50.3684211 L33,50.3684211 Z" id="Fill-306"></path>
                                    <path d="M40.7055,78.7006579 L49.264875,65.7868816 C54.582,68.733148 57.75,73.2562895 57.75,78.7006579 L40.7055,78.7006579 Z M16.731,65.7868816 L25.2945,78.7006579 L8.25,78.7006579 C8.25,73.2562895 11.413875,68.733148 16.731,65.7868816 L16.731,65.7868816 Z M41.25,62.9194589 L33,75.368472 L24.75,62.9194589 C27.291,62.3924507 30.050625,62.1019737 33,62.1019737 C35.949375,62.1019737 38.709,62.3924507 41.25,62.9194589 L41.25,62.9194589 Z M33,53.8026316 C13.567125,53.8026316 0,64.0398701 0,78.7006579 L0,87 L66,87 L66,78.7006579 C66,64.0398701 52.42875,53.8026316 33,53.8026316 L33,53.8026316 Z" id="Fill-307"></path>
                                </g>
                            </g>
                        </g>
                    </g>
                </g>
            </g>
        </g>
    </g>
</svg>